<svg id="Layer_1" data-name="Layer 1" xmlns="http://www.w3.org/2000/svg" viewBox="0 0 725.29 445.9"><defs><style>.cls-1{font-size:135.74px;font-family:Gotham-BoldItalic, Gotham;font-weight:700;font-style:italic;}.cls-1,.cls-2{fill:#fff;}</style></defs><text class="cls-1" transform="translate(167.97 115.38) scale(1.02 1)">bunjy</text><text x="-148.84" y="-399.87"/><polygon class="cls-2" points="551.59 174.33 159.59 174.33 142.22 174.33 142.22 152.61 551.59 152.61 551.59 174.33"/><path d="M214.38,292.53" transform="translate(-148.84 -399.87)"/><path class="cls-2" d="M285.4,574.2" transform="translate(-148.84 -399.87)"/><path class="cls-2" d="M285.4,574.2" transform="translate(-148.84 -399.87)"/><path class="cls-2" d="M700.43,552.48a57.38,57.38,0,0,1,23.9,7.46,56,56,0,0,1,16.31,14.26H700.43" transform="translate(-148.84 -399.87)"/><path class="cls-2" d="M291.06,552.48H255.67a42.46,42.46,0,0,0,17.55,17,43.21,43.21,0,0,0,17.84,4.68" transform="translate(-148.84 -399.87)"/></svg>